<?xml version="1.0" encoding="UTF-8"?>
<svg id="Layer_1" data-name="Layer 1" xmlns="http://www.w3.org/2000/svg" xmlns:xlink="http://www.w3.org/1999/xlink" viewBox="0 0 452.38 105.4">
  <defs>
    <clipPath id="clippath">
      <polygon points="148.77 2.18 214.46 2.18 231.46 47.19 261.52 2.18 325.71 2.18 309.67 103.36 259.48 103.36 267.37 53.31 233.78 103.36 209.7 103.36 190.8 53.31 182.91 103.36 132.73 103.36 148.77 2.18" fill="none" stroke-width="0"/>
    </clipPath>
    <clipPath id="clippath-1">
      <path d="M298.37,68.82h59.16c0,4.35.54,10.88,14.82,10.88,13.19,0,15.64-3.94,15.64-7.21,0-3.94-2.04-6.53-18.5-7.48l-16.73-.95c-37.26-2.18-46.1-15.64-46.1-31.28,0-2.04.41-4.9.81-6.66C311.56,8.3,329.65.27,374.53.27h16.87c57.94,0,62.15,18.77,60.79,32.5h-58.07c0-3.67-1.09-8.16-14.28-8.16-11.83,0-15.1,1.63-15.1,5.3s3.13,5.44,18.63,6.26l16.59.82c36.99,1.77,49.5,10.2,49.5,28.56,0,2.58-.14,5.17-.41,7.07-2.45,18.09-15.64,32.64-71.4,32.64h-17.41c-60.38,0-63.24-23.8-61.88-36.45Z" fill="none" stroke-width="0"/>
    </clipPath>
  </defs>
  <path d="M73.03,105.27C12.78,105.27,0,82.55,0,59.16c0-4.62.41-9.11.82-11.7C3.81,28.15,14.96,0,81.33,0h4.62c67.86,0,73.3,29.65,71.26,42.43l-.41,2.58h-50.86c-.14-2.31-1.9-12.78-24.21-12.78s-27.61,10.61-28.97,17.41c-.41,2.04-.68,4.22-.68,6.12,0,8.98,5.17,17,24.34,17,22.85,0,26.25-11.42,27.06-13.87h51.14l-.27,1.77c-2.18,13.74-8.43,44.61-76.71,44.61h-4.62Z" fill="#23489b" stroke-width="0"/>
  <path d="M148.77,2.04h65.69l17,45.02,30.06-45.02h64.19l-16.05,101.19h-50.19l7.89-50.05-33.59,50.05h-24.07l-18.9-50.05-7.89,50.05h-50.18L148.77,2.04Z" fill="#2f60ce" stroke-width="0"/>
  <path d="M298.37,68.82h59.16c0,4.35.54,10.88,14.82,10.88,13.19,0,15.64-3.94,15.64-7.21,0-3.94-2.04-6.53-18.5-7.48l-16.73-.95c-37.26-2.18-46.1-15.64-46.1-31.28,0-2.04.41-4.9.81-6.66C311.56,8.3,329.65.27,374.53.27h16.87c57.94,0,62.15,18.77,60.79,32.5h-58.07c0-3.67-1.09-8.16-14.28-8.16-11.83,0-15.1,1.63-15.1,5.3s3.13,5.44,18.63,6.26l16.59.82c36.99,1.77,49.5,10.2,49.5,28.56,0,2.58-.14,5.17-.41,7.07-2.45,18.09-15.64,32.64-71.4,32.64h-17.41c-60.38,0-63.24-23.8-61.88-36.45Z" fill="#05e3ab" stroke-width="0"/>
  <g clip-path="url(#clippath)">
    <path d="M73.03,105.4C12.78,105.4,0,82.69,0,59.3c0-4.62.41-9.11.82-11.7C3.81,28.29,14.96.14,81.33.14h4.62c67.86,0,73.3,29.65,71.26,42.43l-.41,2.58h-50.86c-.14-2.31-1.9-12.78-24.21-12.78s-27.61,10.61-28.97,17.41c-.41,2.04-.68,4.22-.68,6.12,0,8.98,5.17,17,24.34,17,22.85,0,26.25-11.42,27.06-13.87h51.14l-.27,1.77c-2.18,13.74-8.43,44.61-76.71,44.61h-4.62Z" fill="#23489b" opacity=".8" stroke-width="0"/>
  </g>
  <g clip-path="url(#clippath-1)">
    <polygon points="148.77 2.04 214.46 2.04 231.46 47.06 261.52 2.04 325.71 2.04 309.67 103.23 259.48 103.23 267.37 53.18 233.78 103.23 209.7 103.23 190.8 53.18 182.91 103.23 132.73 103.23 148.77 2.04" fill="#2f60ce" opacity=".9" stroke-width="0"/>
  </g>
</svg>